<?xml version="1.0" encoding="utf-8"?>
<!-- Generator: Adobe Illustrator 23.0.3, SVG Export Plug-In . SVG Version: 6.00 Build 0)  -->
<svg version="1.1" id="Layer_1" xmlns="http://www.w3.org/2000/svg" xmlns:xlink="http://www.w3.org/1999/xlink" x="0px" y="0px"
	 viewBox="0 0 1485.4 1286.4" style="enable-background:new 0 0 1485.4 1286.4;" xml:space="preserve">
<style type="text/css">
	.st0{fill:none;stroke:#231F20;stroke-miterlimit:10;}
	.st1{fill:#FFF100;stroke:#231F20;stroke-miterlimit:10;}
	.st2{fill:#00ADEE;stroke:#231F20;stroke-width:7.086615e-02;stroke-miterlimit:10;}
</style>
<path class="st0" d="M1114,0H371.3L0,643.2l371.3,643.2H1114l371.3-643.2L1114,0z"/>
<polygon class="st0" points="1184.6,515.6 1184.6,388.1 1074.1,324.3 1074.1,196.7 963.6,132.9 853.1,196.7 742.7,132.9 
	632.2,196.7 521.7,132.9 411.3,196.7 411.3,324.3 300.8,388.1 300.8,515.6 190.3,579.4 190.3,707 300.8,770.7 300.8,898.3 
	411.3,962.1 411.3,1089.6 521.7,1153.4 632.2,1089.6 742.7,1153.4 853.1,1089.6 963.6,1153.4 1074.1,1089.6 1074.1,962.1 
	1184.6,898.3 1184.6,770.7 1295,707 1295,579.4 "/>
	

<g>
	<polygon class="st0" points="853.1,196.7 853.1,324.3 963.6,388.1 1074.1,324.3 1074.1,196.7 963.6,132.9 	"/>
	<polygon class="st0" points="632.2,196.7 632.2,324.3 742.7,388.1 853.1,324.3 853.1,196.7 742.7,132.9 	"/>
	<polygon class="st0" points="411.3,196.7 411.3,324.3 521.7,388.1 632.2,324.3 632.2,196.7 521.7,132.9 	"/>
</g>
<g>
	<polygon class="st0" points="300.8,388.1 300.8,515.6 411.3,579.4 521.7,515.6 521.7,388.1 411.3,324.3 	"/>
	<polygon class="st0" points="521.7,388.1 521.7,515.6 632.2,579.4 742.7,515.6 742.7,388.1 632.2,324.3 	"/>
	<polygon class="st0" points="742.7,388.1 742.7,515.6 853.1,579.4 963.6,515.6 963.6,388.1 853.1,324.3 	"/>
	<polygon class="st0" points="963.6,388.1 963.6,515.6 1074.1,579.4 1184.6,515.6 1184.6,388.1 1074.1,324.3 	"/>
</g>
<g>
	<polygon class="st0" points="190.3,579.4 190.3,707 300.8,770.7 411.3,707 411.3,579.4 300.8,515.6 	"/>
	<polygon class="st0" points="411.3,579.4 411.3,707 521.7,770.7 632.2,707 632.2,579.4 521.7,515.6 	"/>
	<polygon class="st0" points="632.2,579.4 632.2,707 742.7,770.7 853.1,707 853.1,579.4 742.7,515.6 	"/>
	<polygon class="st0" points="853.1,579.4 853.1,707 963.6,770.7 1074.1,707 1074.1,579.4 963.6,515.6 	"/>
	<polygon class="st0" points="1074.1,579.4 1074.1,707 1184.6,770.7 1295,707 1295,579.4 1184.6,515.6 	"/>
</g>
<g>
	<polygon class="st0" points="300.8,770.7 300.8,898.3 411.3,962.1 521.7,898.3 521.7,770.7 411.3,707 	"/>
	<polygon class="st0" points="521.7,770.7 521.7,898.3 632.2,962.1 742.7,898.3 742.7,770.7 632.2,707 	"/>
	<polygon class="st0" points="742.7,770.7 742.7,898.3 853.1,962.1 963.6,898.3 963.6,770.7 853.1,707 	"/>
	<polygon class="st0" points="963.6,770.7 963.6,898.3 1074.1,962.1 1184.6,898.3 1184.6,770.7 1074.1,707 	"/>
</g>
<g>
	<polygon class="st0" points="411.3,962.1 411.3,1089.6 521.7,1153.4 632.2,1089.6 632.2,962.1 521.7,898.3 	"/>
	<polygon class="st0" points="632.2,962.1 632.2,1089.6 742.7,1153.4 853.1,1089.6 853.1,962.1 742.7,898.3 	"/>
	<polygon class="st0" points="853.1,962.1 853.1,1089.6 963.6,1153.4 1074.1,1089.6 1074.1,962.1 963.6,898.3 	"/>
</g>




<g>
	<circle class="st1" cx="411.3" cy="196.7" r="21.3"/>
	<circle class="st1" cx="521.7" cy="132.9" r="21.3"/>
	<circle class="st1" cx="632.2" cy="196.7" r="21.3"/>
	<circle class="st1" cx="742.7" cy="132.9" r="21.3"/>
	<circle class="st1" cx="853.1" cy="196.7" r="21.3"/>
	<circle class="st1" cx="963.6" cy="132.9" r="21.3"/>
	<circle class="st1" cx="1074.1" cy="196.7" r="21.3"/>
</g>
<g>
	<circle class="st1" cx="300.8" cy="388.1" r="21.3"/>
	<circle class="st1" cx="411.3" cy="324.3" r="21.3"/>
	<circle class="st1" cx="521.7" cy="388.1" r="21.3"/>
	<circle class="st1" cx="632.2" cy="324.3" r="21.3"/>
	<circle class="st1" cx="742.7" cy="388.1" r="21.3"/>
	<circle class="st1" cx="853.1" cy="324.3" r="21.3"/>
	<circle class="st1" cx="963.6" cy="388.1" r="21.3"/>
		<circle class="st1" cx="1074.1" cy="324.3" r="21.3"/>
	<circle class="st1" cx="1184.6" cy="388.1" r="21.3"/>
</g>
<g>	
	<circle class="st1" cx="190.3" cy="579.4" r="21.3"/>
	<circle class="st1" cx="300.8" cy="515.6" r="21.3"/>
	<circle class="st1" cx="411.3" cy="579.4" r="21.3"/>
	<circle class="st1" cx="521.7" cy="515.6" r="21.3"/>
	<circle class="st1" cx="632.2" cy="579.4" r="21.3"/>
	<circle class="st1" cx="742.7" cy="515.6" r="21.3"/>
	<circle class="st1" cx="853.1" cy="579.4" r="21.3"/>
	<circle class="st1" cx="963.6" cy="515.6" r="21.3"/>
		<circle class="st1" cx="1074.1" cy="579.4" r="21.3"/>
			<circle class="st1" cx="1184.6" cy="515.6" r="21.3"/>
				<circle class="st1" cx="1295" cy="579.4" r="21.3"/>
</g>
<g>
	<circle class="st1" cx="1074.1" cy="707" r="21.3"/>
	<circle class="st1" cx="190.3" cy="707" r="21.3"/>
	<circle class="st1" cx="300.8" cy="770.7" r="21.3"/>
	<circle class="st1" cx="411.3" cy="707" r="21.3"/>
	<circle class="st1" cx="521.7" cy="770.7" r="21.3"/>
	<circle class="st1" cx="632.2" cy="707" r="21.3"/>
	<circle class="st1" cx="742.7" cy="770.7" r="21.3"/>
	<circle class="st1" cx="853.1" cy="707" r="21.3"/>
	<circle class="st1" cx="963.6" cy="770.7" r="21.3"/>
	<circle class="st1" cx="1184.6" cy="770.7" r="21.3"/>
	<circle class="st1" cx="1295" cy="707" r="21.3"/>
</g>
<g>	
	<circle class="st1" cx="300.8" cy="898.3" r="21.3"/>
	<circle class="st1" cx="411.3" cy="962.1" r="21.3"/>
	<circle class="st1" cx="521.7" cy="898.3" r="21.3"/>
	<circle class="st1" cx="632.2" cy="962.1" r="21.3"/>
	<circle class="st1" cx="742.7" cy="898.3" r="21.3"/>
	<circle class="st1" cx="853.1" cy="962.1" r="21.3"/>
	<circle class="st1" cx="963.6" cy="898.3" r="21.3"/>
	<circle class="st1" cx="1074.1" cy="962.1" r="21.3"/>
	<circle class="st1" cx="1184.6" cy="898.3" r="21.3"/>
</g>
<g>
	<circle class="st1" cx="411.3" cy="1089.6" r="21.3"/>
	<circle class="st1" cx="521.7" cy="1153.4" r="21.3"/>
	<circle class="st1" cx="632.2" cy="1089.6" r="21.3"/>
	<circle class="st1" cx="742.7" cy="1153.4" r="21.3"/>
	<circle class="st1" cx="853.1" cy="1089.6" r="21.3"/>
	<circle class="st1" cx="963.6" cy="1153.4" r="21.3"/>
	<circle class="st1" cx="1074.1" cy="1089.6" r="21.3"/>
</g>





<g>
	<rect x="452.3" y="143.6" transform="matrix(-0.5 -0.866 0.866 -0.5 557.0089 651.2472)" class="st2" width="28.3" height="42.5"/>
	<rect x="562.8" y="143.6" transform="matrix(-0.5 0.866 -0.866 -0.5 1008.2051 -252.4281)" class="st2" width="28.3" height="42.5"/>
	<rect x="673.3" y="143.6" transform="matrix(-0.5 -0.866 0.866 -0.5 888.4158 842.5851)" class="st2" width="28.3" height="42.5"/>
	<rect x="783.7" y="143.6" transform="matrix(-0.5 0.866 -0.866 -0.5 1339.6119 -443.7661)" class="st2" width="28.3" height="42.5"/>
		<rect x="894.2" y="143.6" transform="matrix(-0.5 -0.866 0.866 -0.5 1219.8228 1033.923)" class="st2" width="28.3" height="42.5"/>
		<rect x="1004.7" y="143.6" transform="matrix(-0.5 0.866 -0.866 -0.5 1671.0189 -635.1039)" class="st2" width="28.3" height="42.5"/>
</g>
<g>
	<rect x="397.1" y="239.2" class="st2" width="28.3" height="42.5"/>
	<rect x="618" y="239.2" class="st2" width="28.3" height="42.5"/>
	<rect x="839" y="239.2" class="st2" width="28.3" height="42.5"/>
	<rect x="1059.9" y="239.2" class="st2" width="28.3" height="42.5"/>
</g>
<g>
	<rect x="341.9" y="334.9" transform="matrix(-0.5 -0.866 0.866 -0.5 225.6013 842.5861)" class="st2" width="28.3" height="42.5"/>
	<rect x="452.3" y="334.9" transform="matrix(-0.5 0.866 -0.866 -0.5 1008.2051 130.2476)" class="st2" width="28.3" height="42.5"/>
	<rect x="562.8" y="334.9" transform="matrix(-0.5 -0.866 0.866 -0.5 557.0083 1033.924)" class="st2" width="28.3" height="42.5"/>
	<rect x="673.3" y="334.9" transform="matrix(-0.5 0.866 -0.866 -0.5 1339.6121 -61.0903)" class="st2" width="28.3" height="42.5"/>
	
		<rect x="783.7" y="334.9" transform="matrix(-0.5 -0.866 0.866 -0.5 888.4152 1225.2618)" class="st2" width="28.3" height="42.5"/>
	<rect x="894.2" y="334.9" transform="matrix(-0.5 0.866 -0.866 -0.5 1671.0189 -252.4282)" class="st2" width="28.3" height="42.5"/>
		<rect x="1004.7" y="334.9" transform="matrix(-0.5 -0.866 0.866 -0.5 1219.8221 1416.5997)" class="st2" width="28.3" height="42.5"/>
		<rect x="1115.1" y="334.9" transform="matrix(-0.5 0.866 -0.866 -0.5 2002.4258 -443.7661)" class="st2" width="28.3" height="42.5"/>
</g>
<g>
	<rect x="286.6" y="430.6" class="st2" width="28.3" height="42.5"/>
	<rect x="507.6" y="430.6" class="st2" width="28.3" height="42.5"/>
	<rect x="728.5" y="430.6" class="st2" width="28.3" height="42.5"/>
	<rect x="949.4" y="430.6" class="st2" width="28.3" height="42.5"/>
	<rect x="1170.4" y="430.6" class="st2" width="28.3" height="42.5"/>
</g>
<g>
		<rect x="224.3" y="533.3" transform="matrix(0.866 -0.5 0.5 0.866 -240.8535 196.1346)" class="st2" width="42.5" height="28.3"/>
		<rect x="341.9" y="526.2" transform="matrix(0.5 -0.866 0.866 0.5 -296.1364 582.0876)" class="st2" width="28.3" height="42.5"/>
		<rect x="445.2" y="533.3" transform="matrix(0.866 -0.5 0.5 0.866 -211.2535 306.6036)" class="st2" width="42.5" height="28.3"/>
		<rect x="562.8" y="526.2" transform="matrix(0.5 -0.866 0.866 0.5 -185.6674 773.4255)" class="st2" width="28.3" height="42.5"/>
		<rect x="666.2" y="533.3" transform="matrix(0.866 -0.5 0.5 0.866 -181.6534 417.0725)" class="st2" width="42.5" height="28.3"/>
		<rect x="783.7" y="526.2" transform="matrix(0.5 -0.866 0.866 0.5 -75.1984 964.7634)" class="st2" width="28.3" height="42.5"/>
		<rect x="887.1" y="533.3" transform="matrix(0.866 -0.5 0.5 0.866 -152.0533 527.5415)" class="st2" width="42.5" height="28.3"/>
		<rect x="1004.7" y="526.2" transform="matrix(0.5 -0.866 0.866 0.5 35.2706 1156.1012)" class="st2" width="28.3" height="42.5"/>
		<rect x="1108.1" y="533.3" transform="matrix(0.866 -0.5 0.5 0.866 -122.4533 638.0105)" class="st2" width="42.5" height="28.3"/>
		<rect x="1225.6" y="526.2" transform="matrix(0.5 -0.866 0.866 0.5 145.7395 1347.4391)" class="st2" width="28.3" height="42.5"/>
</g>
<g>
<rect x="176.2" y="621.9" class="st2" width="28.3" height="42.5"/>
	<rect x="397.1" y="621.9" class="st2" width="28.3" height="42.5"/>
	<rect x="618" y="621.9" class="st2" width="28.3" height="42.5"/>
	<rect x="839" y="621.9" class="st2" width="28.3" height="42.5"/>
	<rect x="1059.9" y="621.9" class="st2" width="28.3" height="42.5"/>
	<rect x="1280.8" y="621.9" class="st2" width="28.3" height="42.5"/>
</g>
<g>	
		<rect x="231.4" y="717.6" transform="matrix(-0.5 0.866 -0.866 -0.5 1008.2057 895.6002)" class="st2" width="28.3" height="42.5"/>
		<rect x="341.9" y="717.6" transform="matrix(-0.5 -0.866 0.866 -0.5 -105.8068 1416.6018)" class="st2" width="28.3" height="42.5"/>
		<rect x="452.3" y="717.6" transform="matrix(-0.5 0.866 -0.866 -0.5 1339.6125 704.2623)" class="st2" width="28.3" height="42.5"/>
		<rect x="562.8" y="717.6" transform="matrix(-0.5 -0.866 0.866 -0.5 225.6001 1607.9397)" class="st2" width="28.3" height="42.5"/>
	<rect x="673.3" y="717.6" transform="matrix(-0.5 0.866 -0.866 -0.5 1671.0195 512.9244)" class="st2" width="28.3" height="42.5"/>
		<rect x="783.7" y="717.6" transform="matrix(-0.5 -0.866 0.866 -0.5 557.0071 1799.2776)" class="st2" width="28.3" height="42.5"/>
	<rect x="894.2" y="717.6" transform="matrix(-0.5 0.866 -0.866 -0.5 2002.4264 321.5865)" class="st2" width="28.3" height="42.5"/>
		<rect x="1004.7" y="717.6" transform="matrix(-0.5 -0.866 0.866 -0.5 888.414 1990.6155)" class="st2" width="28.3" height="42.5"/>
	<rect x="1115.1" y="717.6" transform="matrix(-0.5 0.866 -0.866 -0.5 2333.8333 130.2486)" class="st2" width="28.3" height="42.5"/>
		<rect x="1225.6" y="717.6" transform="matrix(-0.5 -0.866 0.866 -0.5 1219.8209 2181.9534)" class="st2" width="28.3" height="42.5"/>
</g>
<g>
	<rect x="286.6" y="813.3" class="st2" width="28.3" height="42.5"/>
	<rect x="507.6" y="813.3" class="st2" width="28.3" height="42.5"/>
	<rect x="728.5" y="813.3" class="st2" width="28.3" height="42.5"/>
	<rect x="949.4" y="813.3" class="st2" width="28.3" height="42.5"/>
	<rect x="1170.4" y="813.3" class="st2" width="28.3" height="42.5"/>
</g>
<g>
		<rect x="341.9" y="908.9" transform="matrix(-0.5 0.866 -0.866 -0.5 1339.6133 1086.939)" class="st2" width="28.3" height="42.5"/>
		<rect x="452.3" y="908.9" transform="matrix(-0.5 -0.866 0.866 -0.5 -105.8074 1799.2787)" class="st2" width="28.3" height="42.5"/>
		<rect x="562.8" y="908.9" transform="matrix(-0.5 0.866 -0.866 -0.5 1671.0203 895.6011)" class="st2" width="28.3" height="42.5"/>	
		<rect x="673.3" y="908.9" transform="matrix(-0.5 -0.866 0.866 -0.5 225.5995 1990.6166)" class="st2" width="28.3" height="42.5"/>
	<rect x="783.7" y="908.9" transform="matrix(-0.5 0.866 -0.866 -0.5 2002.4271 704.2632)" class="st2" width="28.3" height="42.5"/>
		<rect x="894.2" y="908.9" transform="matrix(-0.5 -0.866 0.866 -0.5 557.0065 2181.9543)" class="st2" width="28.3" height="42.5"/>
	<rect x="1004.7" y="908.9" transform="matrix(-0.5 0.866 -0.866 -0.5 2333.834 512.9253)" class="st2" width="28.3" height="42.5"/>
		<rect x="1115.1" y="908.9" transform="matrix(-0.5 -0.866 0.866 -0.5 888.4134 2373.2922)" class="st2" width="28.3" height="42.5"/>
</g>
<g>
	<rect x="397.1" y="1004.6" class="st2" width="28.3" height="42.5"/>
	<rect x="618" y="1004.6" class="st2" width="28.3" height="42.5"/>
	<rect x="839" y="1004.6" class="st2" width="28.3" height="42.5"/>
	<rect x="1059.9" y="1004.6" class="st2" width="28.3" height="42.5"/>
</g>
<g>
		<rect x="452.3" y="1100.3" transform="matrix(-0.5 0.866 -0.866 -0.5 1671.0208 1278.278)" class="st2" width="28.3" height="42.5"/>
		<rect x="562.8" y="1100.3" transform="matrix(-0.5 -0.866 0.866 -0.5 -105.808 2181.9556)" class="st2" width="28.3" height="42.5"/>
	<rect x="673.3" y="1100.3" transform="matrix(-0.5 0.866 -0.866 -0.5 2002.4277 1086.9401)" class="st2" width="28.3" height="42.5"/>
		<rect x="783.7" y="1100.3" transform="matrix(-0.5 -0.866 0.866 -0.5 225.5989 2373.2935)" class="st2" width="28.3" height="42.5"/>
	<rect x="894.2" y="1100.3" transform="matrix(-0.5 0.866 -0.866 -0.5 2333.8345 895.6022)" class="st2" width="28.3" height="42.5"/>
		<rect x="1004.7" y="1100.3" transform="matrix(-0.5 -0.866 0.866 -0.5 557.0059 2564.6313)" class="st2" width="28.3" height="42.5"/>
</g>
</svg>
