<svg xmlns="http://www.w3.org/2000/svg" viewBox="0 0 298.64 264.46"><title>Asset 2</title><polygon points="213.1 21.76 85.54 21.76 21.76 132.23 85.54 242.7 213.1 242.7 276.88 132.23 213.1 21.76" style="fill:#fff;stroke:#231f20;stroke-miterlimit:10"/><circle cx="85.54" cy="21.76" r="21.26" style="fill:#fff100;stroke:#231f20;stroke-miterlimit:10"/><circle cx="213.1" cy="21.76" r="21.26" style="fill:#fff100;stroke:#231f20;stroke-miterlimit:10"/><circle cx="21.76" cy="132.23" r="21.26" style="fill:#fff100;stroke:#231f20;stroke-miterlimit:10"/><circle cx="276.88" cy="132.23" r="21.26" style="fill:#fff100;stroke:#231f20;stroke-miterlimit:10"/><circle cx="85.54" cy="242.7" r="21.26" style="fill:#fff100;stroke:#231f20;stroke-miterlimit:10"/><circle cx="213.1" cy="242.7" r="21.26" style="fill:#fff100;stroke:#231f20;stroke-miterlimit:10"/><rect x="230.82" y="166.2" width="28.35" height="42.52" transform="translate(363.42 472.3) rotate(-150)" style="fill:#00adee;stroke:#231f20;stroke-miterlimit:10;stroke-width:0.070866141732283px"/><rect x="135.15" y="221.44" width="28.35" height="42.52" transform="translate(392.02 93.38) rotate(90)" style="fill:#00adee;stroke:#231f20;stroke-miterlimit:10;stroke-width:0.070866141732283px"/><rect x="39.48" y="166.2" width="28.35" height="42.52" transform="translate(-86.54 51.94) rotate(-30)" style="fill:#00adee;stroke:#231f20;stroke-miterlimit:10;stroke-width:0.070866141732283px"/><rect x="230.82" y="55.73" width="28.35" height="42.52" transform="matrix(0.87, -0.5, 0.5, 0.87, -5.67, 132.81)" style="fill:#00adee;stroke:#231f20;stroke-miterlimit:10;stroke-width:0.070866141732283px"/><rect x="135.15" y="0.5" width="28.35" height="42.52" transform="translate(171.08 -127.56) rotate(90)" style="fill:#00adee;stroke:#231f20;stroke-miterlimit:10;stroke-width:0.070866141732283px"/><rect x="39.48" y="55.73" width="28.35" height="42.52" transform="translate(61.62 170.49) rotate(-150)" style="fill:#00adee;stroke:#231f20;stroke-miterlimit:10;stroke-width:0.070866141732283px"/></svg>